<?xml version="1.0" encoding="utf-8"?>
<!-- Generator: Adobe Illustrator 23.0.1, SVG Export Plug-In . SVG Version: 6.00 Build 0)  -->
<svg version="1.1" id="Layer_1" xmlns="http://www.w3.org/2000/svg" xmlns:xlink="http://www.w3.org/1999/xlink" x="0px" y="0px"
	 viewBox="0 0 1080 1080" style="enable-background:new 0 0 1080 1080;" xml:space="preserve">
<style type="text/css">
	.st0{fill-rule:evenodd;clip-rule:evenodd;fill:url(#SVGID_1_);}
	.st1{fill-rule:evenodd;clip-rule:evenodd;fill:#BCBEC0;}
	.st2{fill-rule:evenodd;clip-rule:evenodd;fill:url(#SVGID_2_);}
	.st3{fill-rule:evenodd;clip-rule:evenodd;fill:#58595B;}
	.st4{fill-rule:evenodd;clip-rule:evenodd;fill:url(#SVGID_3_);}
	.st5{fill:none;}
	.st6{fill:#020202;}
	.st7{font-family:'Museo-700';}
	.st8{font-size:139.7192px;}
	.st9{fill-rule:evenodd;clip-rule:evenodd;fill:none;}
	.st10{font-family:'Noway';}
	.st11{font-size:48px;}
	.st12{letter-spacing:9;}
</style>
<g>
	<g>
		<linearGradient id="SVGID_1_" gradientUnits="userSpaceOnUse" x1="138.024" y1="248.7225" x2="285.3412" y2="424.2882">
			<stop  offset="0" style="stop-color:#D1D3D4"/>
			<stop  offset="1" style="stop-color:#FFFFFF"/>
		</linearGradient>
		<path class="st0" d="M327,351.9l-82.4-63l-106.8,81.8c39.7,4.8,71.9-9.3,104-18.3C267.9,345.2,292.5,342.5,327,351.9z"/>
		<path class="st1" d="M150.5,371.8l101-77.6l-6.8-5.3l-106.1,81.5C142.5,370.9,146.5,371.3,150.5,371.8z"/>
		<linearGradient id="SVGID_2_" gradientUnits="userSpaceOnUse" x1="225.3312" y1="382.0162" x2="317.3307" y2="290.0166">
			<stop  offset="0" style="stop-color:#38602E"/>
			<stop  offset="1.753396e-02" style="stop-color:#376230"/>
			<stop  offset="0.388" style="stop-color:#007F72"/>
			<stop  offset="0.6856" style="stop-color:#0096AC"/>
			<stop  offset="0.8958" style="stop-color:#00A4D7"/>
			<stop  offset="1" style="stop-color:#00AEEF"/>
		</linearGradient>
		<path class="st2" d="M334.3,358l-89.7-69.1l-106,81.6l-14.3-2.9l120.3-93.5l114.4,89.4L334.3,358L334.3,358z M285.1,282.9
			c4.9-19.9,39.8-22.1,34.5-48.3C316.8,257,281.6,260,285.1,282.9L285.1,282.9z M284.3,271.8c-3.1-20.1,28.2-24.7,30.7-44.7
			C319.7,250.1,288.7,254,284.3,271.8L284.3,271.8z M278.7,284.8v12.9l13.1,10.4v-23.3H278.7z"/>
		<path class="st3" d="M246,336.4v13.4h13v-13.4H246L246,336.4z M258.9,334.2v-0.6c0-6.8-6.4-12.4-14.3-12.4
			c-7.8,0-14.3,5.6-14.3,12.4v0.6H258.9L258.9,334.2z M243.3,336.4h-13v13.4h13V336.4z"/>
		<linearGradient id="SVGID_3_" gradientUnits="userSpaceOnUse" x1="133.2115" y1="411.8381" x2="401.1819" y2="324.7692">
			<stop  offset="0" style="stop-color:#110D3D"/>
			<stop  offset="0.3428" style="stop-color:#004770"/>
			<stop  offset="0.6623" style="stop-color:#007AAB"/>
			<stop  offset="0.8881" style="stop-color:#009CD7"/>
			<stop  offset="1" style="stop-color:#00AEEF"/>
		</linearGradient>
		<path class="st4" d="M403.4,383.9C257.6,298.5,217.1,415,95.7,364.2C217.7,430.4,245.7,311.4,403.4,383.9L403.4,383.9z
			 M213.8,383.7c51.4-8,68.9-38.5,167.2-4.2C268.9,352.6,274.5,379.1,213.8,383.7L213.8,383.7z M318.7,349.3
			c-88.5-13-123.8,44.3-201.8,16.1C198.9,387.8,229.6,327.9,318.7,349.3z"/>
	</g>
	<rect x="79.1" y="287.2" class="st5" width="1224.5" height="166.9"/>
	<text transform="matrix(1 0 0 1 403.0902 386.4406)" class="st6 st7 st8">Mr. Fix It</text>
	<rect x="44.6" y="421.5" class="st9" width="992.2" height="139.8"/>
	<text transform="matrix(1 0 0 1 101.0965 457.4663)" class="st10 st11 st12">HOME IMPROVEMENT SERVICES</text>
</g>
</svg>
