<svg xmlns="http://www.w3.org/2000/svg" xmlns:xlink="http://www.w3.org/1999/xlink" viewBox="0 0 572.37 420.83"><defs><style>.cls-1,.cls-2,.cls-3,.cls-4,.cls-5{fill-rule:evenodd;}.cls-1{fill:url(#linear-gradient);}.cls-2{fill:#bcbec0;}.cls-3{fill:url(#linear-gradient-2);}.cls-4{fill:#58595b;}.cls-5{fill:url(#linear-gradient-3);}.cls-6,.cls-9{isolation:isolate;}.cls-6{font-size:139.72px;fill:#020202;font-family:Museo-700, Museo;font-weight:700;}.cls-7{letter-spacing:0em;}.cls-8{letter-spacing:-0.05em;}</style><linearGradient id="linear-gradient" x1="90.24" y1="1026.93" x2="342.32" y2="726.51" gradientTransform="matrix(1, 0, 0, -1, 0, 1064)" gradientUnits="userSpaceOnUse"><stop offset="0" stop-color="#d1d3d4"/><stop offset="1" stop-color="#fff"/></linearGradient><linearGradient id="linear-gradient-2" x1="239.6" y1="799.04" x2="397.02" y2="956.47" gradientTransform="matrix(1, 0, 0, -1, 0, 1064)" gradientUnits="userSpaceOnUse"><stop offset="0" stop-color="#38602e"/><stop offset="0.02" stop-color="#376230"/><stop offset="0.39" stop-color="#007f72"/><stop offset="0.69" stop-color="#0096ac"/><stop offset="0.9" stop-color="#00a4d7"/><stop offset="1" stop-color="#00aeef"/></linearGradient><linearGradient id="linear-gradient-3" x1="82.1" y1="747.87" x2="540.64" y2="896.86" gradientTransform="matrix(1, 0, 0, -1, 0, 1064)" gradientUnits="userSpaceOnUse"><stop offset="0" stop-color="#110d3d"/><stop offset="0.34" stop-color="#004770"/><stop offset="0.66" stop-color="#007aab"/><stop offset="0.89" stop-color="#009cd7"/><stop offset="1" stop-color="#00aeef"/></linearGradient></defs><title>MrFixIt2019Asset 20115</title><g id="Layer_2" data-name="Layer 2"><g id="Layer_1-2" data-name="Layer 1"><path class="cls-1" d="M413.69,213.55l-141-107.8L90,245.72c67.93,8.21,123-15.92,178-31.32C312.57,202.08,354.66,197.46,413.69,213.55Z"/><path class="cls-2" d="M111.68,247.6,284.5,114.82l-11.63-9.07L91.32,245.21C98,246.06,104.84,246.75,111.68,247.6Z"/><path class="cls-3" d="M426.19,224,272.7,105.75,91.32,245.38l-24.47-5,205.85-160,195.75,153L426.19,224ZM342,95.48c8.38-34.05,68.1-37.81,59-82.65-4.79,38.33-65,43.47-59,82.65Zm-1.37-19C335.32,42.09,388.88,34.22,393.16,0c8,39.36-45,46-52.53,76.49Zm-9.58,22.24v22.08l22.41,17.79V98.73Z"/><path class="cls-4" d="M275.09,187V210h22.25V187Zm22.08-3.77v-1c0-11.64-11-21.22-24.47-21.22-13.35,0-24.47,9.58-24.47,21.22v1ZM270.47,187H248.23V210h22.24Z"/><path class="cls-5" d="M544.42,268.31C294.94,122.17,225.64,321.52,17.91,234.6c208.76,113.27,256.67-90.35,526.51,33.71ZM220,268c88-13.69,117.9-65.88,286.11-7.18-191.82-46-182.24-.69-286.11,7.18Zm179.5-58.86c-151.43-22.24-211.84,75.8-345.3,27.55C194.5,275,247,172.48,399.49,209.1Z"/><text class="cls-6" transform="translate(0 378.44)"><tspan class="cls-7">M</tspan><tspan class="cls-8" x="122.11" y="0">r</tspan><tspan x="171.99" y="0">. Fix It</tspan></text><g class="cls-9"><path d="M8.3,395.42h3.32v10.46H24.67V395.42H28v25.05H24.67V408.72H11.62v11.75H8.3Z"/><path d="M67.22,407.8c0,6.89-3.86,13-11.75,13-7.37,0-11.49-5.7-11.49-12.89s4.2-12.88,11.78-12.88C62.81,395.06,67.22,400.36,67.22,407.8Zm-19.76,0c0,5.41,2.77,10.15,8.15,10.15,5.82,0,8.13-4.79,8.13-10.14s-2.62-10-8.12-10C49.94,397.9,47.46,402.49,47.46,407.84Z"/><path d="M104.62,409.79c0-4.65,0-9.38.16-12h-.14c-1.07,4.06-5.12,14.81-8,22.69h-3c-2.17-6.41-6.37-18.46-7.49-22.74h-.11c.19,2.89.27,8.46.27,12.75v10H83.21V395.42h5c2.84,7.77,6.32,17.8,7.18,21h.06c.59-2.41,4.69-13.42,7.64-21h4.81v25.05h-3.24Z"/><path d="M141.19,408.76H128.73v8.86h13.68l-.43,2.85h-16.5V395.42h16.31v2.85H128.73v7.64h12.46Z"/><path d="M181,395.42v25.05h-3.32V395.42Z"/><path d="M220,409.79c0-4.65.05-9.38.15-12H220c-1.07,4.06-5.12,14.81-8,22.69h-3c-2.16-6.41-6.36-18.46-7.49-22.74h-.11c.2,2.89.28,8.46.28,12.75v10h-3.13V395.42h5c2.84,7.77,6.32,17.8,7.18,21h.06c.58-2.41,4.69-13.42,7.63-21h4.82v25.05H220Z"/><path d="M240.86,395.42h9.5c4.88,0,8.21,2.72,8.21,7.29,0,4.88-3.51,7.47-8.41,7.47h-6v10.29h-3.34Zm3.34,12H250c3.43,0,5.15-1.67,5.15-4.59s-2.08-4.57-5-4.57H244.2Z"/><path d="M277.38,409.44v11h-3.3V395.42h9.79c5.15,0,7.89,2.79,7.89,6.7a5.72,5.72,0,0,1-4.27,5.89c2,.55,3.82,2.08,3.82,6.42v1.08c0,1.72-.08,3.91.34,5h-3.23c-.46-1.08-.42-3-.42-5.39v-.53c0-3.57-1-5.11-5.5-5.11Zm0-2.8h5.44c3.83,0,5.51-1.44,5.51-4.25,0-2.66-1.73-4.17-5.13-4.17h-5.82Z"/><path d="M329.91,407.8c0,6.89-3.86,13-11.75,13-7.38,0-11.49-5.7-11.49-12.89s4.2-12.88,11.78-12.88C325.5,395.06,329.91,400.36,329.91,407.8Zm-19.76,0c0,5.41,2.77,10.15,8.15,10.15,5.82,0,8.13-4.79,8.13-10.14s-2.62-10-8.12-10C312.63,397.9,310.15,402.49,310.15,407.84Z"/><path d="M351.85,420.47l-9.11-25.05h3.56l4.42,12.49c1.28,3.67,2.58,7.38,3.13,9.66h.07c.53-2.05,1.95-5.91,3.26-9.54l4.59-12.61h3.43l-9.42,25.05Z"/><path d="M395.49,408.76H383v8.86h13.67l-.42,2.85H379.78V395.42h16.31v2.85H383v7.64h12.45Z"/><path d="M433.48,409.79c0-4.65,0-9.38.15-12h-.13c-1.07,4.06-5.13,14.81-8,22.69h-3c-2.17-6.41-6.36-18.46-7.49-22.74h-.11c.19,2.89.28,8.46.28,12.75v10h-3.13V395.42H417c2.85,7.77,6.33,17.8,7.18,21h.06c.59-2.41,4.7-13.42,7.64-21h4.82v25.05h-3.24Z"/><path d="M470.05,408.76H457.59v8.86h13.68l-.43,2.85H454.33V395.42h16.31v2.85H457.59v7.64h12.46Z"/><path d="M486.59,420.47V395.42H491c3.59,5.86,11.4,18.31,12.81,21h.05c-.25-3.22-.22-7.17-.22-11.26v-9.78h3.14v25.05h-4.13c-3.31-5.44-11.46-18.84-13-21.65h-.05c.18,2.85.18,7.1.18,11.62v10Z"/><path d="M529.53,398.27h-8.09v-2.85H541v2.85h-8.1v22.2h-3.35Z"/><path d="M557.1,413.5c.68,3,2.73,4.62,6.36,4.62,3.91,0,5.45-1.83,5.45-4.2s-1.23-3.92-6.25-5.13c-5.9-1.43-7.95-3.46-7.95-7,0-3.72,2.74-6.75,8.33-6.75,6,0,8.42,3.45,8.76,6.74h-3.38c-.45-2.23-1.84-4.06-5.5-4.06-3,0-4.76,1.37-4.76,3.76s1.41,3.28,5.8,4.34c7.14,1.74,8.41,4.52,8.41,7.74,0,4-3,7.2-9.12,7.2-6.3,0-9-3.44-9.53-7.28Z"/></g></g></g></svg>